<?xml version="1.0" encoding="utf-8"?>
<!DOCTYPE svg PUBLIC "-//W3C//DTD SVG 20010904//EN" "http://www.w3.org/TR/2001/REC-SVG-20010904/DTD/svg10.dtd">
<svg version="1.0" xmlns="http://www.w3.org/2000/svg" width="32px" height="23px" viewBox="0 0 526 382" preserveAspectRatio="xMidYMid meet">
 <g fill="#333333">
  <path d="M160 360.9 c-28.6 -2.7 -60.1 -14.4 -82.9 -30.7 -32.1 -22.9 -56.9 -61.1 -64.5 -99.2 -4.9 -24.6 -4.7 -54.7 0.4 -79.7 8.9 -43.1 38.1 -83.3 77.1 -106.1 4.6 -2.7 10 -5.5 11.9 -6.2 1.9 -0.7 4 -1.7 4.6 -2.2 2 -1.5 17.7 -7 27 -9.4 14.4 -3.7 29.1 -5.4 47.8 -5.4 28.2 0 48 3.9 71.3 13.7 l8.2 3.5 7.8 -3.2 c10 -4.3 24.3 -8.6 36.3 -11.1 13.7 -2.9 48.2 -3.7 63.9 -1.5 57.1 8.1 102.9 40.6 128.4 91.2 4.4 8.7 11.1 28.4 13.1 38.4 7.5 37.5 3.2 80.5 -10.9 111.7 -4.3 9.4 -13.3 24.7 -17.9 30.4 -11.3 13.8 -17 20 -25.6 27.1 -26.5 22.2 -58.8 35.5 -94 38.7 -35.2 3.3 -68.2 -1.3 -93.9 -13.1 l-6.4 -2.9 -8.1 3.4 c-27.3 11.7 -58.8 15.9 -93.6 12.6z m40.7 -62.6 c2.3 -0.8 2.2 -0.9 -2.2 -6.8 -6.1 -8.2 -16.6 -29 -20.4 -40.5 -11.4 -35 -11.6 -82.1 -0.5 -116.4 3.9 -11.8 12.3 -29.2 19.2 -39.5 l6 -8.9 -5.6 -1.1 c-8.8 -1.8 -25.2 -1.3 -36.2 0.9 -43.4 8.8 -77 42.3 -85.3 85 -4.8 24.1 -1.9 45.6 9.2 68.5 14.8 30.7 43.7 52.3 78.8 59 8.3 1.6 32.7 1.4 37 -0.2z m155.6 0.6 c34.5 -5.1 65.8 -27.2 80.8 -57.1 15.6 -31 16.5 -62 2.8 -94.1 -11.2 -26.4 -37.3 -49.6 -66.2 -58.8 -14.6 -4.7 -35.4 -6.3 -48 -3.8 -5.5 1.1 -6.8 2.1 -4.7 3.4 1.3 0.8 7.3 10.2 12.2 19 9.1 16.3 15.4 35 18.4 54.5 2.2 14.4 2.2 45.8 0 60.3 -4 25.8 -14 50.6 -27.9 69.5 -2.1 3 -3.6 5.6 -3.2 6 2 2 24.9 2.8 35.8 1.1z m-89 -42.1 c9.1 -12.3 14.9 -24.5 19.4 -40.8 2.6 -9.6 2.5 -37.6 -0.1 -48 -4 -15.7 -13.2 -33.9 -22.9 -45.4 l-2.5 -2.8 -4.1 5.2 c-28.2 35.7 -30.9 86.3 -6.6 124.6 3.7 5.9 10.3 14.4 11 14.4 0.3 0 2.9 -3.3 5.8 -7.2z"/>
 </g>
 <g fill="#ffffff">
  <path d="M0 191 l0 -191 263 0 263 0 0 191 0 191 -263 0 -263 0 0 -191z m201 167 c19.3 -2.1 37.2 -6.9 52.6 -14 l8 -3.7 6 2.9 c43.2 21.1 102.5 20.8 148.9 -0.7 24.7 -11.4 41.7 -25.3 62.1 -50.4 8.6 -10.7 19.1 -31.1 24.2 -47.2 15 -47.2 8.9 -100.8 -16.1 -140.9 -27.1 -43.3 -68.9 -70.2 -120.8 -77.6 -14.2 -2 -43.1 -1.5 -55.9 1.1 -15.2 2.9 -35.6 9.6 -45.5 14.7 -2.7 1.5 -3.3 1.4 -10.9 -1.9 -24.8 -10.7 -46.1 -15.2 -72.2 -15.3 -15.7 0 -31.2 1.9 -44.8 5.4 -9.3 2.4 -25 7.9 -27 9.4 -0.6 0.5 -2.7 1.5 -4.6 2.2 -1.9 0.7 -7.3 3.5 -11.9 6.2 -39 22.8 -68.2 63 -77.1 106.1 -12.2 59.4 4.4 116.9 45.5 157.2 26.2 25.7 64.2 43 101.5 46.4 13.9 1.2 27.9 1.3 38 0.1z"/>
  <path d="M160.7 301.5 c-20 -3.8 -38.8 -12.9 -54 -26.1 -28.8 -25 -42.2 -67.1 -34.1 -107.4 8.7 -43.1 41.9 -76.1 85.7 -85.1 8.7 -1.8 12.6 -2 26.2 -1.6 8.8 0.3 18.1 1 20.7 1.7 l4.8 1.2 -4.3 5.6 c-10.1 13.1 -19.8 31.7 -25.1 47.8 -10.9 33.4 -10.7 76.2 0.5 110.4 4.2 12.7 14.5 32.5 22.3 43 l6.3 8.5 -4.1 1.3 c-6.3 2.1 -35.3 2.5 -44.9 0.7z"/>
  <path d="M324.5 302.3 c-3.5 -0.4 -11.5 -2.4 -11.5 -2.9 0 -0.1 2.6 -3.8 5.8 -8.1 15.7 -20.9 25.6 -45 29.8 -72 2.1 -14.1 2.1 -40.3 0 -54.3 -4.2 -27.6 -15.5 -54.3 -31.9 -75.4 -2.1 -2.7 -3.6 -5.1 -3.3 -5.3 1.5 -1.5 16.9 -3.3 28.2 -3.3 24.7 0 43.5 5.5 63.2 18.7 46.2 30.7 61.4 93.2 35.3 145.1 -15 29.9 -46.3 52 -80.8 57.1 -6.7 1 -28 1.3 -34.8 0.4z"/>
  <path d="M253.6 261.3 c-13.2 -17.5 -20.5 -36.4 -22.5 -57.8 -1.1 -12.5 -0.1 -28.1 2.5 -39 3.9 -15.8 13.5 -34.8 22.9 -45.2 l5 -5.6 4.6 5.4 c15.1 17.7 24 39.2 25.8 62.9 2.3 28.3 -4.8 54.9 -20.2 76 -4.5 6.2 -9.7 12 -10.8 12 -0.4 0 -3.7 -3.9 -7.3 -8.7z"/>
 </g>
</svg>
