<?xml version="1.0" encoding="utf-8"?>
<!DOCTYPE svg PUBLIC "-//W3C//DTD SVG 20010904//EN" "http://www.w3.org/TR/2001/REC-SVG-20010904/DTD/svg10.dtd">
<svg version="1.0" xmlns="http://www.w3.org/2000/svg" width="100px" height="100px" viewBox="0 0 100 100" preserveAspectRatio="xMidYMid meet">
 <g fill="#595959">
  <path d="M17.5 96.3 c-4.8 -1.2 -5.5 -2.9 -5.5 -14.6 0 -12.2 1.3 -16.3 6 -19.7 3.5 -2.5 8.8 -2.6 10.6 -0.2 1.2 1.5 1.3 1.5 1.4 -1 0 -3.2 2.4 -5.8 5.3 -5.8 1.2 0 2.8 -0.4 3.6 -0.9 0.8 -0.6 -0.6 -1.1 -4.4 -1.6 -13.8 -1.7 -19.5 -5 -19.5 -11.3 0 -4.7 0.7 -5.6 5 -7.4 5.2 -2.2 7 -4.9 8 -11.7 1.4 -10.2 6.1 -15.7 15.4 -18.2 7.8 -2.1 19.2 0.6 23.8 5.8 2.5 2.7 4.8 8.7 4.8 12.5 0 5 3.3 9.6 8.5 11.8 4.4 1.9 4.5 2.1 4.5 6.4 0 6.9 -2.7 8.9 -15.9 11.6 -4.7 0.9 -7.9 2 -7.1 2.2 0.8 0.3 2.9 0.9 4.5 1.4 2.4 0.8 3.1 1.6 3.6 4.4 0.4 2.7 0.7 3.1 1.3 1.8 1.1 -2.5 7.1 -2.3 10.7 0.3 5.2 3.7 6.4 7.2 6.4 19.2 0 10.7 0 10.9 -2.8 13.3 l-2.8 2.4 -31.7 -0.1 c-17.4 -0.1 -32.6 -0.4 -33.7 -0.6z"/>
 </g>
 <g fill="#ffffff">
  <path d="M0 50 l0 -50 50 0 50 0 0 50 0 50 -50 0 -50 0 0 -50z m82.7 41.6 c2.6 -2.3 2.8 -2.9 2.7 -10.3 0 -8.9 -1.6 -12.9 -6.5 -16.4 -2.9 -2 -3.2 -2.1 -4.1 -0.5 -0.5 0.9 -2.3 3.3 -4 5.2 -10.4 11.8 -28.5 12.5 -39.7 1.6 -2.6 -2.6 -5.3 -5.6 -5.8 -6.6 -1 -1.9 -1.1 -1.9 -4.1 0.2 -4.5 3.3 -6.2 7.8 -6.2 16.9 0 8.4 1 10.5 5.5 11.6 1.1 0.2 14.9 0.5 30.7 0.6 l28.7 0.1 2.8 -2.4z m-26.6 -20.7 c4.8 -1.5 10.9 -6.5 10.9 -9 0 -1.9 -1.3 -2.7 -7.5 -4.5 -3.2 -1 -4.4 -3.7 -2.6 -5.8 0.7 -0.8 3.3 -1.7 5.9 -2 11.4 -1.6 19.2 -5.3 19.2 -9.2 0 -0.8 -2 -2.3 -4.5 -3.4 -5.2 -2.2 -8.5 -6.8 -8.5 -12 0 -11.1 -12.4 -20.8 -22.8 -18 -9.1 2.4 -13.8 8 -15.2 18.1 -1 6.9 -3.3 10.2 -8.6 11.9 -3.4 1.2 -4.7 3 -3.8 5.5 0.9 2.3 8.4 5.3 16.9 6.7 7.6 1.3 8 1.5 8.3 4.1 0.3 2.8 -1.1 3.9 -6.9 5.1 -5.3 1.1 -4.5 5.8 1.6 9.6 6.4 4 11.3 4.7 17.6 2.9z"/>
 </g>
</svg>
