<?xml version="1.0" encoding="utf-8"?>
<!DOCTYPE svg PUBLIC "-//W3C//DTD SVG 20010904//EN" "http://www.w3.org/TR/2001/REC-SVG-20010904/DTD/svg10.dtd">
<svg version="1.0" xmlns="http://www.w3.org/2000/svg" width="100px" height="100px" viewBox="0 0 100 100" preserveAspectRatio="xMidYMid meet">
 <g fill="#595959">
  <path d="M17.4 96.3 c-4.9 -1 -5.6 -3.2 -5.2 -16 0.3 -10.6 0.6 -12.2 2.6 -14.8 4.5 -5.7 8.9 -7.9 22.5 -10.9 l2.9 -0.7 -3.7 -4.1 c-5.5 -6 -7.8 -12 -8.3 -21.4 -0.7 -12.3 2.1 -18.5 10 -22.5 8 -4.1 18.6 -3.5 25.9 1.4 10.6 7 10.8 29.3 0.3 41.8 -3.6 4.4 -3.6 5.9 0 5.9 7.4 0 18.1 5.8 21.9 11.9 2 3.2 2.2 4.7 2 14.6 -0.4 16.2 2.7 15 -36.6 15.1 -17.7 0.1 -33.2 0 -34.3 -0.3z"/>
 </g>
 <g fill="#ffffff">
  <path d="M0 50 l0 -50 50 0 50 0 0 50 0 50 -50 0 -50 0 0 -50z m83 41.5 c3 -3.1 3.1 -17 0.1 -21.9 -3.9 -6.2 -10 -9.4 -23.8 -12.2 -4.1 -0.8 -3.9 -4.1 0.8 -9.6 13.9 -16.5 10.9 -36.2 -6.3 -40.8 -7.5 -2.1 -16.7 2.4 -20.6 10 -4.4 8.5 -1.6 21.3 6.7 30.3 4.4 4.7 5.2 8.1 2.4 9.5 -1 0.5 -4.6 1.5 -8 2.2 -6.7 1.4 -12.9 4.9 -16.5 9.5 -1.9 2.5 -2.4 4.4 -2.7 11.8 -0.3 9.5 0.7 12.1 5.3 13 1.1 0.3 15.3 0.4 31.3 0.3 27.9 -0.1 29.3 -0.2 31.3 -2.1z"/>
 </g>
</svg>
